<svg width="52" height="47" viewBox="0 0 52 47" fill="none" xmlns="http://www.w3.org/2000/svg">
<path d="M32.375 40.0706L19.625 35.9581L10.4795 39.2192C9.85301 39.4428 9.27271 39.3788 8.73863 39.0273C8.20454 38.6757 7.9375 38.195 7.9375 37.585V11.9009C7.9375 11.5141 8.04995 11.167 8.27484 10.8596C8.49939 10.5521 8.81477 10.3294 9.221 10.1913L19.625 6.92969L32.375 11.0422L41.5205 7.78107C42.147 7.5575 42.7273 7.61201 43.2614 7.9446C43.7955 8.27719 44.0625 8.74229 44.0625 9.33991V35.1747C44.0625 35.5739 43.94 35.9241 43.6949 36.2254C43.4494 36.5266 43.1171 36.7463 42.6977 36.8844L32.375 40.0706ZM30.7812 36.478V13.5655L21.2188 10.4846V33.3971L30.7812 36.478ZM33.9688 36.478L40.875 34.3689V11.1626L33.9688 13.5655V36.478ZM11.125 35.8376L18.0312 33.3971V10.4846L11.125 12.6314V35.8376Z" fill="#393434"/>
</svg>
