<svg width="52" height="47" viewBox="0 0 52 47" fill="none" xmlns="http://www.w3.org/2000/svg">
<path d="M31.7887 31.5448L33.5453 29.7882L27.2503 23.4932V15.6665H24.7503V24.5061L31.7887 31.5448ZM26.0032 39.8332C23.8132 39.8332 21.7548 39.4176 19.8278 38.5865C17.9009 37.7554 16.2248 36.6275 14.7995 35.2028C13.3742 33.778 12.2457 32.1026 11.4141 30.1765C10.5827 28.2504 10.167 26.1925 10.167 24.0028C10.167 21.8128 10.5825 19.7543 11.4137 17.8273C12.2448 15.9004 13.3727 14.2243 14.7974 12.799C16.2221 11.3737 17.8975 10.2453 19.8237 9.41359C21.7498 8.5822 23.8077 8.1665 25.9974 8.1665C28.1874 8.1665 30.2459 8.58206 32.1728 9.41317C34.0998 10.2443 35.7759 11.3722 37.2012 12.7969C38.6264 14.2216 39.7549 15.8971 40.5866 17.8232C41.418 19.7493 41.8337 21.8072 41.8337 23.9969C41.8337 26.1869 41.4181 28.2454 40.587 30.1723C39.7559 32.0993 38.628 33.7754 37.2032 35.2007C35.7785 36.6259 34.1031 37.7544 32.177 38.5861C30.2509 39.4175 28.193 39.8332 26.0032 39.8332ZM26.0003 37.3332C29.6948 37.3332 32.8406 36.0346 35.4378 33.4373C38.035 30.8401 39.3337 27.6943 39.3337 23.9998C39.3337 20.3054 38.035 17.1596 35.4378 14.5623C32.8406 11.9651 29.6948 10.6665 26.0003 10.6665C22.3059 10.6665 19.16 11.9651 16.5628 14.5623C13.9656 17.1596 12.667 20.3054 12.667 23.9998C12.667 27.6943 13.9656 30.8401 16.5628 33.4373C19.16 36.0346 22.3059 37.3332 26.0003 37.3332Z" fill="#393434"/>
</svg>
