<svg width="102" height="132" viewBox="0 0 102 132" fill="none" xmlns="http://www.w3.org/2000/svg">
<g clip-path="url(#clip0_126_972)">
<path d="M95.532 12.0918H90.8445V7.4043C90.8445 3.52545 87.6921 0.373047 83.8132 0.373047H6.47021C2.59136 0.373047 -0.561035 3.52545 -0.561035 7.4043V112.872C-0.561035 116.751 2.59136 119.904 6.47021 119.904H11.1577V124.591C11.1577 128.47 14.3101 131.622 18.189 131.622H95.532C99.4108 131.622 102.563 128.47 102.563 124.591V19.123C102.563 15.2442 99.4108 12.0918 95.532 12.0918ZM97.8757 124.592C97.8757 125.887 96.8269 126.936 95.532 126.936H18.189C16.894 126.936 15.8452 125.887 15.8452 124.592V117.561C15.8452 116.266 14.7964 115.217 13.5015 115.217H6.47021C5.17529 115.217 4.12646 114.168 4.12646 112.873V7.40505C4.12646 6.11013 5.17529 5.0613 6.47021 5.0613H83.8132C85.1081 5.0613 86.157 6.11013 86.157 7.40505V12.0925H36.939C36.3296 12.0925 35.7085 12.3504 35.2807 12.784L11.8492 36.2155C11.6324 36.4323 11.4566 36.6901 11.3395 36.983C11.2223 37.2702 11.1578 37.5748 11.1578 37.8795V105.848C11.2106 108.9 15.7867 108.953 15.8453 105.848V40.2225H32.2523C36.1312 40.2225 39.2836 37.0701 39.2836 33.1913V16.7843H95.5336C96.8285 16.7843 97.8773 17.8331 97.8773 19.128V124.596L97.8757 124.592ZM34.5937 20.0958V33.1857C34.5937 34.4806 33.5449 35.5294 32.25 35.5294H19.1601L34.5937 20.0958Z" fill="#393434"/>
<path d="M82.6413 48.4204H49.8288C48.5338 48.4204 47.485 49.4692 47.485 50.7641V62.6234C21.3175 66.391 23.245 103.762 49.8288 104.67C60.6687 104.67 69.6153 96.4492 70.7823 85.9199H82.6416C83.9365 85.9199 84.9853 84.8711 84.9853 83.5762V50.7637C84.9853 49.4688 83.9362 48.4204 82.6413 48.4204ZM49.8288 99.9829C40.782 99.9829 33.4218 92.6236 33.4218 83.5759C34.2479 61.8439 65.4138 61.8499 66.2343 83.5759C66.2343 92.6227 58.875 99.9829 49.8273 99.9829H49.8288ZM80.2968 81.2329H70.7811C69.6971 71.4712 61.9276 63.7069 52.1721 62.6239V53.1082H80.2971L80.2968 81.2329Z" fill="#393434"/>
</g>
<defs>
<clipPath id="clip0_126_972">
<rect width="102" height="132" fill="white"/>
</clipPath>
</defs>
</svg>
