<svg width="104" height="132" viewBox="0 0 104 132" fill="none" xmlns="http://www.w3.org/2000/svg">
<path d="M96.3599 12.0929H40.1099V33.1859C40.1099 37.0531 36.9458 40.2172 33.0786 40.2172H11.9856V108.185C11.9856 109.474 10.9309 110.529 9.64187 110.529C8.3528 110.529 7.29812 109.474 7.29812 108.185V37.8727C7.29812 35.9977 8.04225 34.193 9.37232 32.8688L32.7978 9.46582C34.1103 8.12989 35.8916 7.40332 37.7666 7.40332H91.6736C91.6736 3.53617 88.5095 0.37207 84.6423 0.37207H7.29932C3.41462 0.37207 0.268066 3.51862 0.268066 7.40332V112.871C0.268066 116.738 3.40877 119.903 7.29932 119.903H11.9868V124.59C11.9868 128.475 15.1334 131.621 19.0181 131.621H96.3611C100.246 131.621 103.392 128.475 103.392 124.59V19.1221C103.392 15.2549 100.228 12.0908 96.3611 12.0908L96.3599 12.0929ZM85.8131 83.5769C85.8131 84.8718 84.7642 85.9207 83.4693 85.9207H71.61C70.4381 96.4499 61.4909 104.671 50.6565 104.671C39.0257 104.671 29.5635 95.2078 29.5635 83.5777C29.5635 72.7378 37.7843 63.7912 48.3135 62.6242V50.7649C48.3135 49.4699 49.3623 48.4211 50.6573 48.4211H83.4698C84.7647 48.4211 85.8135 49.4699 85.8135 50.7649L85.8131 83.5769Z" fill="#393434"/>
<path d="M33.0658 35.5323C34.3549 35.5323 35.4096 34.4777 35.4096 33.1886V13.4546L13.3311 35.5331L33.0658 35.5323Z" fill="#393434"/>
<path d="M67.062 83.5789C67.062 92.6375 59.7144 99.9859 50.655 99.9859C41.5956 99.9859 34.248 92.6383 34.248 83.5789C34.248 74.5195 41.5956 67.1719 50.655 67.1719C59.7144 67.1719 67.062 74.5195 67.062 83.5789Z" fill="#393434"/>
<path d="M52.9993 62.6254C62.761 63.7094 70.5253 71.4788 71.6083 81.2344H81.124V53.1094H52.999L52.9993 62.6254Z" fill="#393434"/>
</svg>
