<svg width="52" height="47" viewBox="0 0 52 47" fill="none" xmlns="http://www.w3.org/2000/svg">
<path d="M39.0204 38.875C35.7226 38.875 32.4094 38.1082 29.0809 36.5746C25.7527 35.041 22.6947 32.8777 19.9069 30.0847C17.1195 27.2915 14.959 24.2333 13.4254 20.9104C11.8918 17.5877 11.125 14.2774 11.125 10.9796C11.125 10.4496 11.3 10.008 11.65 9.65481C12 9.3016 12.4375 9.125 12.9625 9.125H18.6701C19.112 9.125 19.5018 9.26923 19.8396 9.55769C20.1773 9.84585 20.3921 10.202 20.484 10.6261L21.4872 15.775C21.5566 16.2527 21.542 16.6633 21.4434 17.0066C21.3446 17.3499 21.1672 17.6382 20.9114 17.8715L16.8698 21.8059C17.5202 22.9971 18.2634 24.124 19.0993 25.1865C19.9349 26.2487 20.8397 27.2633 21.8136 28.2302C22.7737 29.1906 23.7946 30.0826 24.8761 30.9059C25.9576 31.7293 27.1254 32.4955 28.3796 33.2046L32.3066 29.2434C32.5804 28.9585 32.9121 28.7587 33.3014 28.6441C33.6905 28.5297 34.0949 28.5017 34.5146 28.5601L39.3739 29.5497C39.8158 29.6664 40.1765 29.8918 40.4559 30.2261C40.7353 30.5603 40.875 30.9395 40.875 31.3636V37.0375C40.875 37.5625 40.6984 38 40.3452 38.35C39.992 38.7 39.5504 38.875 39.0204 38.875ZM15.6277 19.3223L18.7511 16.3337C18.8071 16.2888 18.8435 16.2271 18.8604 16.1486C18.8774 16.0702 18.8746 15.9972 18.8521 15.9299L18.0913 12.0191C18.0689 11.9295 18.0296 11.8623 17.9736 11.8174C17.9176 11.7725 17.8447 11.75 17.7549 11.75H14.0125C13.9451 11.75 13.889 11.7725 13.8441 11.8174C13.7994 11.8623 13.7771 11.9184 13.7771 11.9858C13.8667 13.1816 14.0624 14.3964 14.3642 15.6302C14.6658 16.8642 15.087 18.0949 15.6277 19.3223ZM30.8527 34.4462C32.0127 34.9869 33.2225 35.4004 34.4823 35.6865C35.7423 35.9723 36.9196 36.1422 38.0142 36.1962C38.0816 36.1962 38.1377 36.1737 38.1826 36.1288C38.2275 36.0839 38.25 36.0278 38.25 35.9604V32.2788C38.25 32.189 38.2275 32.1161 38.1826 32.0601C38.1377 32.0041 38.0705 31.9648 37.9809 31.9424L34.3059 31.1951C34.2386 31.1727 34.1796 31.1699 34.1292 31.1868C34.0787 31.2037 34.0254 31.2402 33.9691 31.2962L30.8527 34.4462Z" fill="#393434"/>
</svg>
