<?xml version="1.0" encoding="UTF-8"?>
<svg width="155px" height="27px" viewBox="0 0 155 27" version="1.1" xmlns="http://www.w3.org/2000/svg" xmlns:xlink="http://www.w3.org/1999/xlink">
    <title>CE709821-4F6E-44D1-B46B-3C4743AA6647</title>
    <defs>
        <polygon id="path-1" points="0 0 20.3329029 0 20.3329029 20.0186009 0 20.0186009"></polygon>
    </defs>
    <g id="✅-Home-+-Modales-+-Menú" stroke="none" stroke-width="1" fill="none" fill-rule="evenodd">
        <g id="1280---Home" transform="translate(-563.000000, -65.000000)">
            <g id="MENÚ-DESKTOP" transform="translate(50.000000, 43.000000)">
                <g id="Group" transform="translate(390.000000, 22.000000)">
                    <g id="Logo" transform="translate(123.000000, 0.000000)">
                        <polygon id="Fill-1" fill="#FFFFFF" points="95.420071 20.9991012 97.3771326 20.9991012 97.3771326 0.682001982 95.420071 0.682001982"></polygon>
                        <path d="M100.570748,20.9991413 L102.52789,20.9991413 L102.52789,5.64939963 L100.570748,5.64939963 L100.570748,20.9991413 Z M100.570748,3.84904768 L102.52789,3.84904768 L102.52789,0.682042128 L100.570748,0.682042128 L100.570748,3.84904768 Z" id="Fill-2" fill="#FFFFFF"></path>
                        <polygon id="Fill-3" fill="#FFFFFF" points="111.663215 20.9991172 109.872151 20.9991172 103.901911 5.64937554 105.972447 5.64937554 110.857831 18.0274626 115.785554 5.64937554 117.908374 5.64937554"></polygon>
                        <path d="M119.282339,20.9991413 L121.239481,20.9991413 L121.239481,5.64939963 L119.282339,5.64939963 L119.282339,20.9991413 Z M119.282339,3.84904768 L121.239481,3.84904768 L121.239481,0.682042128 L119.282339,0.682042128 L119.282339,3.84904768 Z" id="Fill-4" fill="#FFFFFF"></path>
                        <g id="Group-32">
                            <path d="M124.404762,5.64938759 L126.304627,5.64938759 L126.304627,7.39726858 C126.906508,6.69712056 127.60313,6.18280884 128.394415,5.84931517 C129.185739,5.51124485 130.090737,5.34451809 131.109409,5.34451809 C132.227696,5.34451809 133.222803,5.55404059 134.099362,5.97324619 C134.975802,6.3923715 135.667592,6.99235499 136.174691,7.77339741 C136.525179,8.32123112 136.776532,8.96417094 136.932784,9.70703441 C137.084442,10.4452811 137.160292,11.5359704 137.160292,12.9789819 L137.160292,20.9991293 L135.231668,20.9991293 L135.231668,12.407462 C135.231668,10.5928983 134.885854,9.27839448 134.198977,8.45921327 C133.507187,7.64003206 132.40292,7.23054182 130.886774,7.23054182 C129.995796,7.23054182 129.21905,7.4114803 128.545993,7.76866017 C127.877729,8.12592033 127.347184,8.64031234 126.958751,9.30697851 C126.716945,9.72614396 126.546474,10.202357 126.451772,10.7406761 C126.352157,11.2739368 126.304627,12.2073738 126.304627,13.5362499 L126.304627,20.9991293 L124.404762,20.9991293 L124.404762,5.64938759 Z" id="Fill-5" fill="#FFFFFF"></path>
                            <path d="M141.519689,13.1980511 C141.519689,14.9937461 142.088298,16.4940461 143.220804,17.7034474 C144.35299,18.9131699 145.72263,19.5178505 147.323931,19.5178505 C148.830651,19.5178505 150.166899,18.9131699 151.32333,17.69867 C152.479481,16.4842103 153.057437,15.0601879 153.057437,13.4218255 C153.057437,11.6741051 152.488828,10.1786226 151.351569,8.94505337 C150.209716,7.70674685 148.868715,7.08765381 147.323931,7.08765381 C145.731976,7.08765381 144.367409,7.67828326 143.225477,8.85452391 C142.088298,10.030885 141.519689,11.4787943 141.519689,13.1980511 L141.519689,13.1980511 Z M142.879582,22.2518001 C143.178066,23.147018 143.713285,23.8424288 144.49035,24.3425288 C145.267495,24.8425485 146.210398,25.0903302 147.323931,25.0903302 C149.063111,25.0903302 150.46079,24.509095 151.50798,23.3471062 C152.559964,22.1803802 153.085756,20.6276895 153.085756,18.6798006 L153.085756,18.2749673 C152.346675,19.2892988 151.503147,20.0561696 150.560404,20.5704412 C149.612469,21.0895303 148.575024,21.3468668 147.433012,21.3468668 C145.139482,21.3468668 143.234903,20.5752186 141.713765,19.0370608 C140.19754,17.4986622 139.439367,15.5792369 139.439367,13.2838433 C139.439367,11.0215704 140.188113,9.126032 141.69016,7.58771366 C143.187493,6.05413256 145.04486,5.28746245 147.252875,5.28746245 C148.541713,5.28746245 149.655246,5.52075145 150.593396,5.98271264 C151.531785,6.44945123 152.365568,7.17818327 153.085756,8.16397081 L153.085756,5.64937956 L155,5.64937956 L155,18.4561066 C155,21.1371837 154.332056,23.2327299 152.995727,24.7379679 C151.654886,26.2475818 149.811578,27 147.461331,27 C145.731976,27 144.248902,26.5713601 143.007276,25.7093028 C141.765969,24.8473259 140.965258,23.6947714 140.605184,22.2518001 L142.879582,22.2518001 Z" id="Fill-7" fill="#FFFFFF"></path>
                            <path d="M11.7879752,14.5108768 C10.7870371,14.5108768 9.97274639,13.7058672 9.97274639,12.7163461 C9.97274639,11.726825 10.7870371,10.9218153 11.7879752,10.9218153 C12.7889133,10.9218153 13.603204,11.726825 13.603204,12.7163461 C13.603204,13.7058672 12.7889133,14.5108768 11.7879752,14.5108768 M14.0000244,8.89853207 C13.1326512,8.19978916 11.9798549,7.81498877 10.7541251,7.81498877 C9.52843532,7.81498877 8.37571891,8.19978916 7.50834575,8.89853207 C6.65455275,9.58627494 6.18435948,10.4938579 6.18435948,11.4541526 C6.18435948,12.4144072 6.65455275,13.3219902 7.50834575,14.0096929 C8.37567897,14.7083555 9.52839538,15.0931559 10.7541251,15.0931559 C11.9798949,15.0931559 13.1326512,14.7083555 14.0000244,14.0096929 C14.8538174,13.3219902 15.3240106,12.4144072 15.3240106,11.4541526 C15.3240106,10.4938579 14.8538174,9.58623479 14.0000244,8.89853207" id="Fill-9" fill="#FFFFFF"></path>
                            <path d="M16.4003186,4.0146102e-06 L16.3765134,0.115464204 C17.5871852,0.64242194 18.6822258,1.35702256 19.6311998,2.23943388 C20.031575,2.61166854 20.4060681,3.01573906 20.7442941,3.44044467 L20.8509783,3.57437207 L20.8509783,4.0146102e-06 L16.4003186,4.0146102e-06 Z" id="Fill-11" fill="#FFFFFF"></path>
                            <path d="M11.7879752,11.3443169 C11.0188585,11.3443169 10.3931324,11.9597968 10.3931324,12.7163501 C10.3931324,13.4729034 11.0188585,14.0883833 11.7879752,14.0883833 C12.5570918,14.0883833 13.1828179,13.4729034 13.1828179,12.7163501 C13.1828179,11.9597968 12.5570918,11.3443169 11.7879752,11.3443169" id="Fill-13" fill="#FFFFFF"></path>
                            <path d="M15.7443847,11.4541486 C15.7443847,13.6936588 13.5057743,15.5156093 10.7541132,15.5156093 C8.00257191,15.5156093 5.76400143,13.6936588 5.76400143,11.4541486 C5.76400143,9.21451802 8.00257191,7.39248718 10.7541132,7.39248718 C13.5057743,7.39248718 15.7443847,9.21451802 15.7443847,11.4541486 M10.2903106,3.83293304 C6.20559647,3.83293304 2.88241012,6.6739121 2.88241012,10.1659003 C2.88241012,13.6578485 6.20559647,16.4987472 10.2903106,16.4987472 C14.3750247,16.4987472 17.698211,13.6578485 17.698211,10.1659003 C17.698211,6.6739121 14.3750247,3.83293304 10.2903106,3.83293304" id="Fill-15" fill="#FFFFFF"></path>
                            <path d="M19.6312078,17.3464522 C17.4658105,19.3597391 14.5899308,20.4685343 11.5333151,20.4685343 C8.47661954,20.4685343 5.60081977,19.3597391 3.43562213,17.3464924 C1.5405899,15.5841989 0.362909955,13.2517506 0.119545399,10.7787908 L0,10.7846923 L0,20.950408 L20.8509863,20.950408 L20.8509863,16.0117148 L20.7443021,16.1455217 C20.4058364,16.5702274 20.0313434,16.9742577 19.6312078,17.3464522" id="Fill-17" fill="#FFFFFF"></path>
                            <g id="Group-21" transform="translate(0.518079, 0.000000)">
                                <mask id="mask-2" fill="white">
                                    <use xlink:href="#path-1"></use>
                                </mask>
                                <g id="Clip-20"></g>
                                <path d="M17.6004937,10.1659044 C17.6004937,13.8908203 14.0887428,16.921289 9.77224722,16.921289 C5.4557117,16.921289 1.94396076,13.8908203 1.94396076,10.1659044 C1.94396076,6.44090813 5.4557117,3.41039933 9.77224722,3.41039933 C14.0887428,3.41039933 17.6004937,6.44090813 17.6004937,10.1659044 M18.8110057,2.56757206 C17.5276002,1.37422918 15.9346468,0.487160905 14.2043739,0.00219599178 L14.1964655,-1.20438306e-05 L7.83403806,-1.20438306e-05 L7.82612961,0.00219599178 C6.09589669,0.487080613 4.50294326,1.37414888 3.21949779,2.56757206 C1.14337006,4.49815796 0,7.06417637 0,9.79290693 C0,12.5219587 1.14337006,15.0878968 3.21949779,17.0181214 C5.30029869,18.9530029 8.06889504,20.0186009 11.0152318,20.0186009 C13.9616085,20.0186009 16.7301649,18.9530029 18.8110057,17.0181214 C19.3808535,16.488233 19.8893508,15.8984064 20.3223583,15.2650214 L20.3329029,15.2496053 L20.3329029,4.3361283 L20.3223583,4.32071219 C19.8898301,3.68796948 19.3813328,3.0981028 18.8110057,2.56757206" id="Fill-19" fill="#FFFFFF" mask="url(#mask-2)"></path>
                            </g>
                            <path d="M3.43562213,2.23944191 C4.38443635,1.35695029 5.47939711,0.642389823 6.69010882,0.115472233 L6.66630358,1.20438306e-05 L0,1.20438306e-05 L0,8.80108142 L0.119545399,8.80698289 C0.362909955,6.33378228 1.5405899,4.00137404 3.43562213,2.23944191" id="Fill-22" fill="#FFFFFF"></path>
                            <path d="M31.498551,5.05813988 L29.0670224,5.05813988 C29.093344,4.32756112 29.257624,3.81710343 29.5562678,3.53953328 C29.8466437,3.27031352 30.3908888,3.10141887 31.130209,3.05099536 C31.2517914,3.04280556 31.4572913,3.03646247 31.5111327,3.03553911 C32.173645,3.02160842 32.1674541,2.42383296 32.1563104,1.33860353 C32.1506386,0.805382998 32.1437687,0.14176793 31.498551,0.14176793 L31.32812,0.14176793 C29.5752401,0.14176793 28.2369547,0.570608593 27.3504495,1.41640667 C26.4928221,2.23454409 26.0400834,3.4590002 26.0031373,5.05813988 L24.7586749,5.05813988 C24.1021139,5.05813988 24.1021139,5.69020011 24.1021139,6.49047251 C24.1021139,7.27729597 24.1021139,7.89891821 24.7586749,7.89891821 L26.0794259,7.89891821 L26.0794259,20.1660816 C26.0794259,20.830339 26.7163756,20.830339 27.5229975,20.830339 C28.4998108,20.830339 29.0895495,20.830339 29.0895495,20.1660816 L29.0895495,7.89891821 L31.498551,7.89891821 C31.7701943,7.89891821 32.1032279,7.7600127 32.1473235,7.09804362 C32.1598652,6.91148468 32.1625013,6.68991835 32.1625013,6.5369617 C32.1625013,5.71071477 32.1625013,5.05813988 31.498551,5.05813988" id="Fill-24" fill="#FFFFFF"></path>
                            <path d="M40.789633,7.68805081 C42.0532674,7.68805081 43.1452725,8.18931504 44.1277975,9.2202268 C45.1174321,10.2587663 45.5983697,11.4378573 45.5983697,12.8247044 C45.5983697,14.3304241 45.1176717,15.5802927 44.1287561,16.6462119 C43.1512238,17.6997259 42.0418841,18.2117493 40.7372296,18.2117493 C39.3731019,18.2117493 38.236522,17.7261822 37.2625445,16.7274274 C36.2852519,15.7251399 35.809986,14.5262568 35.809986,13.0622088 C35.809986,11.5150583 36.289286,10.2580437 37.2748865,9.21926329 C38.252898,8.18883329 39.4027386,7.68805081 40.789633,7.68805081 M47.0644284,4.99513058 C46.2452249,4.99513058 45.5983697,4.99513058 45.5983697,5.66805954 L45.5983697,6.42641941 C45.1646032,6.05281978 44.6848239,5.73703054 44.1624269,5.48174148 C43.1566559,4.9907145 42.0392879,4.74172838 40.8420365,4.74172838 C38.5252203,4.74172838 36.5647237,5.53866865 35.0149871,7.11030826 C33.4671279,8.68010114 32.6823141,10.6559317 32.6823141,12.9828801 C32.6823141,15.2729342 33.4503124,17.2275274 34.9651799,18.7923422 C36.4843611,20.3624161 38.4088303,21.1583929 40.6846264,21.1583929 C41.9068014,21.1583929 43.0649498,20.8986877 44.1270786,20.3864636 C44.6720426,20.1234264 45.1636446,19.8065933 45.5983697,19.4384937 L45.5983697,20.1661017 C45.5983697,20.8331693 46.2217792,20.8331693 47.084599,20.8331693 C48.0099674,20.8331693 48.6215142,20.8331693 48.6215142,20.1661017 L48.6215142,5.66805954 C48.6215142,4.99513058 47.9682683,4.99513058 47.0644284,4.99513058" id="Fill-26" fill="#FFFFFF"></path>
                            <path d="M68.5832353,4.76807627 C67.4184565,4.76807627 66.3458631,5.00907332 65.3953314,5.48436302 C64.6804555,5.84186406 64.0473402,6.32646766 63.505212,6.92994386 C63.0257123,6.36661376 62.4210355,5.89642261 61.6992497,5.52679745 C60.717204,5.02336533 59.6185686,4.76807627 58.4338589,4.76807627 C57.4112724,4.76807627 56.4766375,4.94901475 55.6555567,5.30579316 C55.2663252,5.47520971 54.8991814,5.68461178 54.5562024,5.93251396 L54.5562024,5.66807158 C54.5562024,4.99084699 53.8661702,4.99084699 53.0673769,4.99084699 C52.169009,4.99084699 51.5196507,4.99084699 51.5196507,5.66638545 C51.5196507,5.73929077 51.5196507,15.6929547 51.5196507,19.9688358 L51.5196507,20.1660736 C51.5196507,20.5663704 51.800627,20.785287 52.3543782,20.8165207 C52.5150635,20.8255536 52.7355016,20.830331 52.9753912,20.830331 C53.9612314,20.830331 54.5562024,20.830331 54.5562024,20.1660736 L54.5562024,13.1148925 C54.5562024,11.9000714 54.5990997,11.0480909 54.6841755,10.5815932 C54.7626209,10.1477342 54.8996607,9.75916011 55.0897431,9.42847667 C55.4019272,8.89047876 55.8148441,8.48974037 56.3515003,8.20337822 C56.8938282,7.9141657 57.5414024,7.76739155 58.2764488,7.76739155 C59.4905555,7.76739155 60.3516978,8.08735599 60.9089639,8.74539074 C61.4830854,9.42345841 61.7741403,10.5344215 61.7741403,12.0470463 L61.7741403,20.1660736 C61.7741403,20.5656477 62.0526535,20.7846046 62.6023706,20.8172433 C62.7614183,20.8265171 62.9775826,20.8317762 63.2110816,20.8317762 C64.1267442,20.8317762 64.7316607,20.8317762 64.7316607,20.1660736 L64.7316607,13.1148925 C64.7316607,11.9026809 64.7766749,11.0521456 64.8653454,10.5865713 C64.9487836,10.1474934 65.0855438,9.75414185 65.2654411,9.42847667 C65.5783441,8.8895554 65.9879458,8.48833525 66.5172128,8.20173223 C67.0500746,7.91344307 67.6834295,7.76739155 68.3997832,7.76739155 C69.6382944,7.76739155 70.4896909,8.089283 71.002422,8.75089076 C71.5437913,9.45039644 71.8185101,10.7014293 71.8185101,12.4689819 L71.8185101,20.1660736 C71.8185101,20.7691082 72.4507067,20.8043564 72.6586031,20.816039 C72.8230828,20.8253127 73.0454381,20.830331 73.2843691,20.830331 C74.1985938,20.830331 74.8025517,20.830331 74.8025517,20.1660736 L74.8025517,12.8511326 C74.8025517,10.0702924 74.3246897,8.08522824 73.3417253,6.78224635 C72.3331184,5.44578261 70.7321767,4.76807627 68.5832353,4.76807627" id="Fill-28" fill="#FFFFFF"></path>
                            <path d="M90.1906807,12.8246964 C90.1906807,14.3304161 89.7099828,15.5802847 88.7210672,16.6462039 C87.7435349,17.699758 86.6341951,18.2117412 85.329301,18.2117412 C83.9651733,18.2117412 82.828833,17.7261741 81.8548556,16.7274596 C80.8775629,15.7251318 80.4022971,14.5262889 80.4022971,13.0622409 C80.4022971,11.5150503 80.881597,10.2580357 81.8671576,9.21929541 C82.8451692,8.1888654 83.9950497,7.68804278 85.3819441,7.68804278 C86.6455785,7.68804278 87.7375836,8.18934716 88.7201086,9.22021877 C89.7097432,10.2587583 90.1906807,11.4378493 90.1906807,12.8246964 M91.7724105,4.97974659 C90.8887412,4.97974659 90.1906807,4.97974659 90.1906807,5.66805151 L90.1906807,6.42641138 C89.7569143,6.0528519 89.277135,5.73702251 88.754738,5.48185389 C87.748967,4.99070647 86.6318386,4.7417605 85.4343076,4.7417605 C83.1172917,4.7417605 81.1567951,5.53870077 79.6072982,7.11030023 C78.0591993,8.68037413 77.2743855,10.6561645 77.2743855,12.9829122 C77.2743855,15.2726853 78.0423838,17.2272785 79.5572513,18.7923342 C81.0766721,20.3624081 83.0011414,21.1583848 85.2769375,21.1583848 C86.4990725,21.1583848 87.6572609,20.8987199 88.7193896,20.3864556 C89.2643537,20.1234585 89.7559557,19.8065853 90.1906807,19.4382448 L90.1906807,20.1660936 C90.1906807,20.8374971 90.8214395,20.8374971 91.6944444,20.8374971 C92.5764362,20.8374971 93.2138253,20.8374971 93.2138253,20.1660936 L93.2138253,5.66805151 C93.2138253,4.97974659 92.4811354,4.97974659 91.7724105,4.97974659" id="Fill-30" fill="#FFFFFF"></path>
                        </g>
                    </g>
                </g>
            </g>
        </g>
    </g>
</svg>