<svg xmlns="http://www.w3.org/2000/svg" width="290.75" height="21.33" viewBox="0 0 290.75 21.33"><g><path d="M0,.3H15V3.85H9.48V21h-4V3.85H0Z"></path><path d="M32.44,21V11.7H22.07V21h-4V.3h4V8.15H32.44V.3h4V21Z"></path><path d="M53.62,3.85H45.17v4.3h6.37V11.7H45.17v5.78h8.74V21H41.18V.3H53.62Z"></path><path d="M62.8,18.22l2.61-2.73a6.4,6.4,0,0,0,4.88,2.28A3.15,3.15,0,0,0,72.47,17a2.34,2.34,0,0,0,.85-1.86,2.29,2.29,0,0,0-.95-1.91,11.55,11.55,0,0,0-2.89-1.47,20.87,20.87,0,0,1-2.8-1.24,5.27,5.27,0,0,1-2.93-4.71,5.13,5.13,0,0,1,2-4.24A7.53,7.53,0,0,1,70.59,0a9.77,9.77,0,0,1,6,2l-2.07,3A5.1,5.1,0,0,0,71,3.55a4.31,4.31,0,0,0-2.24.57,1.83,1.83,0,0,0-1,1.69,1.88,1.88,0,0,0,1,1.55,11.48,11.48,0,0,0,2.38,1.19,28.06,28.06,0,0,1,2.8,1.2,6.32,6.32,0,0,1,2.4,2,5.49,5.49,0,0,1,1,3.32,5.62,5.62,0,0,1-2.08,4.46,7.41,7.41,0,0,1-4.95,1.76A10.9,10.9,0,0,1,62.8,18.22Z"></path><path d="M82.57,18.25a10.41,10.41,0,0,1-3-7.59,10.81,10.81,0,1,1,21.62,0,11,11,0,0,1-18.59,7.59ZM85.49,5.63a7.07,7.07,0,0,0-1.95,5,7.08,7.08,0,0,0,1.95,5,6.74,6.74,0,0,0,9.72,0,7.08,7.08,0,0,0,2-5,7.07,7.07,0,0,0-2-5,6.72,6.72,0,0,0-9.72,0Z"></path><path d="M116.86,3.85h-8.44v4.3h6.37V11.7h-6.37V21h-4V.3h12.44Z"></path><path d="M119.56,21h-4.18L124.27.3h2.81L136,21h-4.18l-1.95-4.59h-8.33Zm6.1-14.28L123,12.89h5.28Z"></path><path d="M155.16,3.55a6.53,6.53,0,0,0-4.91,2.08,7,7,0,0,0-2,5,7,7,0,0,0,7.08,7.11,7,7,0,0,0,5.87-2.87L164,17.36a10.26,10.26,0,0,1-3.69,2.89,11.5,11.5,0,0,1-5,1.08,10.71,10.71,0,0,1-7.89-3.07,10.23,10.23,0,0,1-3.1-7.6,10.28,10.28,0,0,1,3.08-7.59A10.65,10.65,0,0,1,155.19,0a10.49,10.49,0,0,1,7.59,3L160.2,5.69A6.9,6.9,0,0,0,155.16,3.55Z"></path><path d="M168.33,18.25a10.42,10.42,0,0,1-3-7.59,10.82,10.82,0,1,1,21.63,0,11,11,0,0,1-18.59,7.59Zm2.92-12.62a7.08,7.08,0,0,0-2,5,7.09,7.09,0,0,0,2,5,6.74,6.74,0,0,0,9.72,0,7.08,7.08,0,0,0,1.95-5,7.07,7.07,0,0,0-1.95-5,6.72,6.72,0,0,0-9.72,0Z"></path><path d="M193,.3l7.56,12.41L208.1.3h2.81V21h-4V9.48l-5,8.15h-2.79l-5-8.15V21h-4V.3Z"></path><path d="M223.44,12.59h-3.79V21h-4V.3h7.79q3.62,0,5.4,1.86a6,6,0,0,1,1.62,4.3,5.93,5.93,0,0,1-1.62,4.29Q227.08,12.6,223.44,12.59ZM219.65,9h3.62a3.3,3.3,0,0,0,2.51-.83,2.5,2.5,0,0,0,.69-1.75,2.52,2.52,0,0,0-.69-1.78,3.3,3.3,0,0,0-2.51-.83h-3.62Z"></path><path d="M232.86,21h-4.17L237.57.3h2.82L249.28,21H245.1l-2-4.59h-8.32ZM239,6.75l-2.64,6.14h5.27Z"></path><path d="M251.65,21V.3h2.81L266,13.8V.3h4V21H267.2L255.64,7.52V21Z"></path><path d="M290.75.3l-7.11,11.34V21h-4V11.64L272.53.3h4.56l4.56,7.28L286.19.3Z"></path></g></svg>